<svg width="260" height="26" viewBox="0 0 260 26" fill="none" xmlns="http://www.w3.org/2000/svg">
<g clip-path="url(#clip0_1360_24906)">
<g clip-path="url(#clip1_1360_24906)">
<path d="M13.174 10.4564C8.36839 9.46214 6.77757 8.86558 6.77757 7.27476C6.77757 5.89936 8.18611 5.05424 10.4398 5.05424C12.8591 5.05424 14.3671 6.18107 14.682 8.23588L14.7151 8.4513H20.7801V8.18617C20.4984 3.46341 16.3059 0.0332031 10.8043 0.0332031C4.88846 0.0332031 0.762269 3.01599 0.762269 7.27476C0.762269 11.5335 3.33078 14.1683 9.08094 15.2289C13.4723 16.0409 14.8145 16.8031 14.8145 18.4934C14.8145 19.9019 13.3066 20.9293 11.2352 20.9293C8.33525 20.9293 6.36329 19.5373 6.08158 17.2837L6.04844 17.0683H0V17.3334C0.248566 22.5201 4.60676 26.0001 10.8375 26.0001C16.7368 26.0001 20.863 22.8184 20.863 18.2779C20.863 14.102 18.3442 11.5501 13.174 10.473V10.4564Z" fill="white"/>
<path d="M31.8534 0.629883H25.9375V25.4036H31.8534V0.629883Z" fill="black"/>
<path d="M60.3813 15.693L56.4539 0.629883H50.4386L46.4781 15.7593L42.5176 0.629883H36.1875L43.2633 25.2213L43.3131 25.4036H49.1626L53.3054 10.8542L57.3985 25.2213L57.4647 25.4036H63.2978L70.4399 0.629883H64.3749L60.3813 15.693Z" fill="black"/>
<path d="M86.37 0C78.6479 0 73.0469 5.46845 73.0469 12.9917C73.0469 20.515 78.6479 25.9834 86.37 25.9834C94.0921 25.9834 99.6931 20.515 99.6931 12.9917C99.6931 5.46845 94.0921 0 86.37 0ZM86.37 20.5978C82.0781 20.5978 78.9627 17.3996 78.9627 12.9917C78.9627 8.58381 82.0781 5.3856 86.37 5.3856C90.6619 5.3856 93.7773 8.58381 93.7773 12.9917C93.7773 17.3996 90.6619 20.5978 86.37 20.5978Z" fill="black"/>
<path d="M110.697 0.629883H104.781V25.4036H122.794V20.1009H110.697V0.629883Z" fill="black"/>
<path d="M151.01 13.9696L142.874 0.74588L142.808 0.629883H138.102V25.4036H144.017V12.7433L149.154 21.2774L149.237 21.41H152.784L158.003 12.7433V25.4036H163.919V0.629883H159.213L151.01 13.9696Z" fill="black"/>
<path d="M186.542 14.4004C186.542 18.2284 184.471 20.6146 181.124 20.6146C177.776 20.6146 175.705 18.2284 175.705 14.4004V0.629883H169.789V14.4004C169.789 21.3437 174.346 26.0002 181.124 26.0002C187.901 26.0002 192.458 21.3437 192.458 14.4004V0.629883H186.542V14.4004Z" fill="black"/>
<path d="M210.356 10.4564C205.55 9.46214 203.959 8.86558 203.959 7.27476C203.959 5.89936 205.368 5.05424 207.621 5.05424C210.041 5.05424 211.549 6.18107 211.864 8.23588L211.897 8.4513H217.962V8.18617C217.663 3.46341 213.471 0.0332031 207.969 0.0332031C202.053 0.0332031 197.911 3.01599 197.911 7.27476C197.911 11.5335 200.479 14.1683 206.229 15.2289C210.621 16.0409 211.963 16.8031 211.963 18.4934C211.963 19.9019 210.455 20.9293 208.384 20.9293C205.484 20.9293 203.512 19.5373 203.23 17.2837L203.197 17.0683H197.148V17.3334C197.397 22.5201 201.755 26.0001 207.986 26.0001C213.885 26.0001 218.011 22.8184 218.011 18.2779C218.011 14.102 215.493 11.5501 210.322 10.473L210.356 10.4564Z" fill="black"/>
<path d="M229.025 0.629883H223.109V25.4036H229.025V0.629883Z" fill="black"/>
<path d="M253.969 16.0242L253.936 16.2231C253.538 18.2945 250.837 20.515 247.44 20.515C243.148 20.515 240.033 17.3499 240.033 12.9917C240.033 8.63352 243.148 5.46845 247.44 5.46845C250.605 5.46845 253.124 7.05927 253.704 9.44551L253.754 9.64436H259.719L259.67 9.34608C258.593 3.76163 253.638 0 247.324 0C239.668 0 234.117 5.46845 234.117 12.9917C234.117 20.515 239.668 25.9834 247.324 25.9834C254.533 25.9834 259.189 20.9955 259.902 16.3059L259.951 16.0242H253.986H253.969Z" fill="black"/>
</g>
</g>
<defs>
<clipPath id="clip0_1360_24906">
<rect width="260" height="26" fill="white"/>
</clipPath>
<clipPath id="clip1_1360_24906">
<rect width="259.934" height="26" fill="white"/>
</clipPath>
</defs>
</svg>
